<svg xmlns="http://www.w3.org/2000/svg" width="2048" height="1134" viewBox="0 0 2048 1134" font-family="-apple-system, BlinkMacSystemFont, 'SF Pro Text', 'Helvetica Neue', Arial, sans-serif">
<defs><marker id="tip" viewBox="0 0 10 10" refX="6.667" refY="5" markerWidth="9" markerHeight="9" markerUnits="userSpaceOnUse" orient="auto-start-reverse"><path d="M0,0.6 L10,5 L0,9.4 z" fill="#C9D1D9"/></marker></defs>
<rect width="2048" height="1134" fill="#000"/>
<text x="48" y="66" font-size="28" font-weight="700" fill="#F0F6FC">Reclaim<tspan dx="14" font-size="18" font-weight="400" fill="#8B949E">System architecture</tspan></text>
<rect x="48" y="112" width="272" height="736" rx="6" fill="#F58536" fill-opacity="0.05" stroke="#F58536" stroke-opacity="0.9" stroke-width="1.5"/>
<rect x="48" y="112" width="30" height="30" rx="6" fill="#F58536"/>
<g transform="translate(54 118) scale(0.7500)" fill="none" stroke="#fff" stroke-width="2.0" stroke-linecap="round" stroke-linejoin="round"><path d="M3 21V9l9-6 9 6v12"/><path d="M7 21v-8h10v8M7 17h10"/></g>
<text x="90" y="133" font-size="15" font-weight="600" fill="#F0F6FC" text-anchor="start">Warehouse dock</text>
<rect x="360" y="112" width="1320" height="736" rx="6" fill="#8C4FFF" fill-opacity="0.05" stroke="#8C4FFF" stroke-opacity="0.9" stroke-width="1.5"/>
<rect x="360" y="112" width="30" height="30" rx="6" fill="#8C4FFF"/>
<g transform="translate(366 118) scale(0.7500)" fill="none" stroke="#fff" stroke-width="2.0" stroke-linecap="round" stroke-linejoin="round"><circle cx="5" cy="12" r="2.5"/><circle cx="19" cy="5" r="2.5"/><circle cx="19" cy="19" r="2.5"/><path d="M7.3 10.9l9.4-4.8M7.3 13.1l9.4 4.8"/></g>
<text x="402" y="133" font-size="15" font-weight="600" fill="#F0F6FC" text-anchor="start">Agent orchestration · LangGraph</text>
<text x="1662" y="133" font-size="13" font-weight="400" fill="#8B949E" text-anchor="end">Liquid LFM2.5-VL-3B · llama.cpp · on-device</text>
<rect x="1720" y="112" width="280" height="336" rx="6" fill="#0EA5E9" fill-opacity="0.05" stroke="#0EA5E9" stroke-opacity="0.9" stroke-width="1.5"/>
<rect x="1720" y="112" width="30" height="30" rx="6" fill="#0EA5E9"/>
<g transform="translate(1726 118) scale(0.7500)" fill="none" stroke="#fff" stroke-width="2.0" stroke-linecap="round" stroke-linejoin="round"><circle cx="12" cy="12" r="9"/><path d="M3 12h18M12 3c3 3.5 3 14.5 0 18M12 3c-3 3.5-3 14.5 0 18"/></g>
<text x="1762" y="133" font-size="15" font-weight="600" fill="#F0F6FC" text-anchor="start">Discovery</text>
<rect x="1720" y="758" width="280" height="336" rx="6" fill="#E7157B" fill-opacity="0.05" stroke="#E7157B" stroke-opacity="0.9" stroke-width="1.5"/>
<rect x="1720" y="758" width="30" height="30" rx="6" fill="#E7157B"/>
<g transform="translate(1726 764) scale(0.7500)" fill="none" stroke="#fff" stroke-width="2.0" stroke-linecap="round" stroke-linejoin="round"><circle cx="12" cy="8" r="4"/><path d="M4 21c0-4.4 3.6-7 8-7s8 2.6 8 7"/></g>
<text x="1762" y="779" font-size="15" font-weight="600" fill="#F0F6FC" text-anchor="start">Human in the loop</text>
<rect x="48" y="888" width="1632" height="206" rx="6" fill="#7AA116" fill-opacity="0.05" stroke="#7AA116" stroke-opacity="0.9" stroke-width="1.5"/>
<rect x="48" y="888" width="30" height="30" rx="6" fill="#7AA116"/>
<g transform="translate(54 894) scale(0.7500)" fill="none" stroke="#fff" stroke-width="2.0" stroke-linecap="round" stroke-linejoin="round"><ellipse cx="12" cy="5.5" rx="8" ry="3"/><path d="M4 5.5v13c0 1.7 3.6 3 8 3s8-1.3 8-3v-13"/><path d="M4 12c0 1.7 3.6 3 8 3s8-1.3 8-3"/></g>
<text x="90" y="909" font-size="15" font-weight="600" fill="#F0F6FC" text-anchor="start">Data storage · RawTree</text>
<path d="M300.0,240.0 L645.0,240.0" fill="none" stroke="#C9D1D9" stroke-width="1.6" stroke-linejoin="round" marker-end="url(#tip)"/>
<path d="M300.0,760.0 L340.0,760.0 L340.0,1016.0 L389.0,1016.0" fill="none" stroke="#C9D1D9" stroke-width="1.6" stroke-linejoin="round" marker-end="url(#tip)"/>
<path d="M508.0,978.0 L508.0,541.0" fill="none" stroke="#C9D1D9" stroke-width="1.6" stroke-linejoin="round" marker-end="url(#tip)"/>
<path d="M624.0,500.0 L901.0,500.0" fill="none" stroke="#C9D1D9" stroke-width="1.6" stroke-linejoin="round" marker-end="url(#tip)"/>
<path d="M1136.0,500.0 L1413.0,500.0" fill="none" stroke="#C9D1D9" stroke-width="1.6" stroke-linejoin="round" marker-end="url(#tip)"/>
<path d="M1651.0,500.0 L1700.0,500.0 L1700.0,886.0 L1741.0,886.0" fill="none" stroke="#C9D1D9" stroke-width="1.6" stroke-linejoin="round" marker-end="url(#tip)" marker-start="url(#tip)"/>
<path d="M1020.0,462.0 L1020.0,240.0 L883.0,240.0" fill="none" stroke="#C9D1D9" stroke-width="1.6" stroke-linejoin="round" marker-end="url(#tip)"/>
<path d="M1020.0,240.0 L1157.0,240.0" fill="none" stroke="#C9D1D9" stroke-width="1.6" stroke-linejoin="round" marker-end="url(#tip)"/>
<path d="M1020.0,538.0 L1020.0,760.0 L883.0,760.0" fill="none" stroke="#C9D1D9" stroke-width="1.6" stroke-linejoin="round" marker-end="url(#tip)"/>
<path d="M1020.0,760.0 L1157.0,760.0" fill="none" stroke="#C9D1D9" stroke-width="1.6" stroke-linejoin="round" marker-end="url(#tip)"/>
<path d="M1020.0,760.0 L1020.0,975.0" fill="none" stroke="#C9D1D9" stroke-width="1.6" stroke-linejoin="round" marker-end="url(#tip)"/>
<path d="M1392.0,240.0 L1741.0,240.0" fill="none" stroke="#C9D1D9" stroke-width="1.6" stroke-linejoin="round" marker-end="url(#tip)"/>
<path d="M1860.0,278.0 L1860.0,331.0" fill="none" stroke="#C9D1D9" stroke-width="1.6" stroke-linejoin="round" marker-end="url(#tip)"/>
<path d="M764.0,801.0 L764.0,975.0" fill="none" stroke="#C9D1D9" stroke-width="1.6" stroke-linejoin="round" marker-end="url(#tip)" marker-start="url(#tip)"/>
<path d="M1276.0,978.0 L1276.0,801.0" fill="none" stroke="#C9D1D9" stroke-width="1.6" stroke-linejoin="round" marker-end="url(#tip)"/>
<path d="M1860.0,924.0 L1860.0,975.0" fill="none" stroke="#C9D1D9" stroke-width="1.6" stroke-linejoin="round" marker-end="url(#tip)"/>
<path d="M1744.0,1016.0 L1395.0,1016.0" fill="none" stroke="#C9D1D9" stroke-width="1.6" stroke-linejoin="round" marker-end="url(#tip)"/>
<text x="508" y="228" font-size="12.5" font-weight="400" fill="#8B949E" text-anchor="middle">photos</text>
<text x="764.0" y="488" font-size="12.5" font-weight="400" fill="#8B949E" text-anchor="middle">open case</text>
<text x="1276.0" y="488" font-size="12.5" font-weight="400" fill="#8B949E" text-anchor="middle">checkpoint</text>
<text x="1532" y="228" font-size="12.5" font-weight="400" fill="#8B949E" text-anchor="middle">live search</text>
<text x="1532" y="1004" font-size="12.5" font-weight="400" fill="#8B949E" text-anchor="middle">verdict</text>
<text x="1712" y="636" font-size="12.5" font-weight="400" fill="#8B949E" text-anchor="start">escalate</text>
<text x="1712" y="655" font-size="12.5" font-weight="400" fill="#8B949E" text-anchor="start">resume</text>
<text x="348" y="873" font-size="12.5" font-weight="400" fill="#8B949E" text-anchor="start">return row</text>
<text x="516" y="873" font-size="12.5" font-weight="400" fill="#8B949E" text-anchor="start">poll</text>
<text x="772" y="873" font-size="12.5" font-weight="400" fill="#8B949E" text-anchor="start">write · verify</text>
<text x="1028" y="873" font-size="12.5" font-weight="400" fill="#8B949E" text-anchor="start">brief · log</text>
<text x="1284" y="873" font-size="12.5" font-weight="400" fill="#8B949E" text-anchor="start">precedent</text>
<rect x="68.0" y="202.0" width="232" height="76" rx="10" fill="#0D1117" stroke="#30363D"/>
<rect x="84.0" y="218" width="44" height="44" rx="9" fill="#F58536"/>
<g transform="translate(92.0 226) scale(1.1667)" fill="none" stroke="#fff" stroke-width="1.8" stroke-linecap="round" stroke-linejoin="round"><path d="M3 8h3.5l2-3h7l2 3H21v11H3z"/><circle cx="12" cy="13" r="3.8"/></g>
<text x="142.0" y="236" font-size="15.5" font-weight="600" fill="#F0F6FC" text-anchor="start">Dock camera</text>
<text x="142.0" y="256" font-size="12.5" font-weight="400" fill="#8B949E" text-anchor="start">item photos</text>
<rect x="68.0" y="722.0" width="232" height="76" rx="10" fill="#0D1117" stroke="#30363D"/>
<rect x="84.0" y="738" width="44" height="44" rx="9" fill="#F58536"/>
<g transform="translate(92.0 746) scale(1.1667)" fill="none" stroke="#fff" stroke-width="1.8" stroke-linecap="round" stroke-linejoin="round"><path d="M3 8V4h4M17 4h4v4M21 16v4h-4M7 20H3v-4"/><path d="M7.5 8v8M10.5 8v8M13.5 8v8M16.5 8v8"/></g>
<text x="142.0" y="756" font-size="15.5" font-weight="600" fill="#F0F6FC" text-anchor="start">Dock scanner</text>
<text x="142.0" y="776" font-size="12.5" font-weight="400" fill="#8B949E" text-anchor="start">RMA scan</text>
<rect x="392.0" y="462.0" width="232" height="76" rx="10" fill="#0D1117" stroke="#30363D"/>
<rect x="408.0" y="478" width="44" height="44" rx="9" fill="#8C4FFF"/>
<g transform="translate(416.0 486) scale(1.1667)" fill="none" stroke="#fff" stroke-width="1.8" stroke-linecap="round" stroke-linejoin="round"><path d="M2 12s3.6-6.5 10-6.5S22 12 22 12s-3.6 6.5-10 6.5S2 12 2 12z"/><circle cx="12" cy="12" r="3"/></g>
<text x="466.0" y="496" font-size="15.5" font-weight="600" fill="#F0F6FC" text-anchor="start">Watcher</text>
<text x="466.0" y="516" font-size="12.5" font-weight="400" fill="#8B949E" text-anchor="start">polls RawTree</text>
<rect x="904.0" y="462.0" width="232" height="76" rx="10" fill="#0D1117" stroke="#30363D"/>
<rect x="920.0" y="478" width="44" height="44" rx="9" fill="#8C4FFF"/>
<g transform="translate(928.0 486) scale(1.1667)" fill="none" stroke="#fff" stroke-width="1.8" stroke-linecap="round" stroke-linejoin="round"><circle cx="12" cy="12" r="3"/><circle cx="4.5" cy="4.5" r="2"/><circle cx="19.5" cy="4.5" r="2"/><circle cx="4.5" cy="19.5" r="2"/><circle cx="19.5" cy="19.5" r="2"/><path d="M6 6l3.8 3.8M18 6l-3.8 3.8M6 18l3.8-3.8M18 18l-3.8-3.8"/></g>
<text x="978.0" y="496" font-size="15.5" font-weight="600" fill="#F0F6FC" text-anchor="start">Supervisor</text>
<text x="978.0" y="516" font-size="12.5" font-weight="400" fill="#8B949E" text-anchor="start">Liquid router</text>
<rect x="1416.0" y="462.0" width="232" height="76" rx="10" fill="#0D1117" stroke="#30363D"/>
<rect x="1432.0" y="478" width="44" height="44" rx="9" fill="#8C4FFF"/>
<g transform="translate(1440.0 486) scale(1.1667)" fill="none" stroke="#fff" stroke-width="1.8" stroke-linecap="round" stroke-linejoin="round"><circle cx="12" cy="12" r="9"/><path d="M10 8.5v7M14 8.5v7"/></g>
<text x="1490.0" y="496" font-size="15.5" font-weight="600" fill="#F0F6FC" text-anchor="start">Checkpointer</text>
<text x="1490.0" y="516" font-size="12.5" font-weight="400" fill="#8B949E" text-anchor="start">SQLite · resumable</text>
<rect x="648.0" y="202.0" width="232" height="76" rx="10" fill="#0D1117" stroke="#30363D"/>
<rect x="664.0" y="218" width="44" height="44" rx="9" fill="#01A88D"/>
<g transform="translate(672.0 226) scale(1.1667)" fill="none" stroke="#fff" stroke-width="1.8" stroke-linecap="round" stroke-linejoin="round"><path d="M3 8V4h4M17 4h4v4M21 16v4h-4M7 20H3v-4"/><circle cx="11" cy="11" r="3.6"/><path d="M13.7 13.7l3 3"/></g>
<text x="722.0" y="236" font-size="15.5" font-weight="600" fill="#F0F6FC" text-anchor="start">Inspector</text>
<text x="722.0" y="256" font-size="12.5" font-weight="400" fill="#8B949E" text-anchor="start">Liquid LFM2.5-VL</text>
<rect x="1160.0" y="202.0" width="232" height="76" rx="10" fill="#0D1117" stroke="#30363D"/>
<rect x="1176.0" y="218" width="44" height="44" rx="9" fill="#01A88D"/>
<g transform="translate(1184.0 226) scale(1.1667)" fill="none" stroke="#fff" stroke-width="1.8" stroke-linecap="round" stroke-linejoin="round"><path d="M3 3v18h18"/><path d="M7 15l4-4 3 3 6-7"/></g>
<text x="1234.0" y="236" font-size="15.5" font-weight="600" fill="#F0F6FC" text-anchor="start">Market Analyst</text>
<text x="1234.0" y="256" font-size="12.5" font-weight="400" fill="#8B949E" text-anchor="start">Nimble + Liquid</text>
<rect x="648.0" y="722.0" width="232" height="76" rx="10" fill="#0D1117" stroke="#30363D"/>
<rect x="664.0" y="738" width="44" height="44" rx="9" fill="#01A88D"/>
<g transform="translate(672.0 746) scale(1.1667)" fill="none" stroke="#fff" stroke-width="1.8" stroke-linecap="round" stroke-linejoin="round"><path d="M12 2.5l8.5 4.75v9.5L12 21.5l-8.5-4.75v-9.5z"/><path d="M3.5 7.25L12 12l8.5-4.75M12 12v9.5"/></g>
<text x="722.0" y="756" font-size="15.5" font-weight="600" fill="#F0F6FC" text-anchor="start">Operator</text>
<text x="722.0" y="776" font-size="12.5" font-weight="400" fill="#8B949E" text-anchor="start">RawTree writes</text>
<rect x="1160.0" y="722.0" width="232" height="76" rx="10" fill="#0D1117" stroke="#30363D"/>
<rect x="1176.0" y="738" width="44" height="44" rx="9" fill="#01A88D"/>
<g transform="translate(1184.0 746) scale(1.1667)" fill="none" stroke="#fff" stroke-width="1.8" stroke-linecap="round" stroke-linejoin="round"><path d="M12 3v17M7 20h10M4.5 7h15"/><path d="M4.5 7L2 13a2.5 2.5 0 0 0 5 0L4.5 7zM19.5 7L17 13a2.5 2.5 0 0 0 5 0l-2.5-6z"/></g>
<text x="1234.0" y="756" font-size="15.5" font-weight="600" fill="#F0F6FC" text-anchor="start">Decision policy</text>
<text x="1234.0" y="776" font-size="12.5" font-weight="400" fill="#8B949E" text-anchor="start">EV · escalation rules</text>
<rect x="1744.0" y="202.0" width="232" height="76" rx="10" fill="#0D1117" stroke="#30363D"/>
<rect x="1760.0" y="218" width="44" height="44" rx="9" fill="#0EA5E9"/>
<g transform="translate(1768.0 226) scale(1.1667)" fill="none" stroke="#fff" stroke-width="1.8" stroke-linecap="round" stroke-linejoin="round"><circle cx="10.5" cy="10.5" r="6.5"/><path d="M15.5 15.5L21 21"/></g>
<text x="1818.0" y="236" font-size="15.5" font-weight="600" fill="#F0F6FC" text-anchor="start">Nimble</text>
<text x="1818.0" y="256" font-size="12.5" font-weight="400" fill="#8B949E" text-anchor="start">Web Search API</text>
<rect x="1744.0" y="334.0" width="232" height="76" rx="10" fill="#0D1117" stroke="#30363D"/>
<rect x="1760.0" y="350" width="44" height="44" rx="9" fill="#0EA5E9"/>
<g transform="translate(1768.0 358) scale(1.1667)" fill="none" stroke="#fff" stroke-width="1.8" stroke-linecap="round" stroke-linejoin="round"><circle cx="12" cy="12" r="9"/><path d="M3 12h18M12 3c3 3.5 3 14.5 0 18M12 3c-3 3.5-3 14.5 0 18"/></g>
<text x="1818.0" y="368" font-size="15.5" font-weight="600" fill="#F0F6FC" text-anchor="start">Live web</text>
<text x="1818.0" y="388" font-size="12.5" font-weight="400" fill="#8B949E" text-anchor="start">retail · resale</text>
<rect x="1744.0" y="848.0" width="232" height="76" rx="10" fill="#0D1117" stroke="#30363D"/>
<rect x="1760.0" y="864" width="44" height="44" rx="9" fill="#E7157B"/>
<g transform="translate(1768.0 872) scale(1.1667)" fill="none" stroke="#fff" stroke-width="1.8" stroke-linecap="round" stroke-linejoin="round"><rect x="2.5" y="4" width="19" height="13" rx="2"/><path d="M8 21h8M12 17v4M7 13v-2.5M10.5 13V8.5M14 13v-3M17.5 13V9"/></g>
<text x="1818.0" y="882" font-size="15.5" font-weight="600" fill="#F0F6FC" text-anchor="start">Dashboard</text>
<text x="1818.0" y="902" font-size="12.5" font-weight="400" fill="#8B949E" text-anchor="start">escalation inbox</text>
<rect x="1744.0" y="978.0" width="232" height="76" rx="10" fill="#0D1117" stroke="#30363D"/>
<rect x="1760.0" y="994" width="44" height="44" rx="9" fill="#E7157B"/>
<g transform="translate(1768.0 1002) scale(1.1667)" fill="none" stroke="#fff" stroke-width="1.8" stroke-linecap="round" stroke-linejoin="round"><circle cx="10" cy="8" r="4"/><path d="M3 21c0-4 3-6.5 7-6.5s7 2.5 7 6.5"/><path d="M16 10.5l2 2 4-4"/></g>
<text x="1818.0" y="1012" font-size="15.5" font-weight="600" fill="#F0F6FC" text-anchor="start">Reviewer</text>
<text x="1818.0" y="1032" font-size="12.5" font-weight="400" fill="#8B949E" text-anchor="start">approve · override</text>
<rect x="392.0" y="978.0" width="232" height="76" rx="10" fill="#0D1117" stroke="#30363D"/>
<rect x="408.0" y="994" width="44" height="44" rx="9" fill="#7AA116"/>
<g transform="translate(416.0 1002) scale(1.1667)" fill="none" stroke="#fff" stroke-width="1.8" stroke-linecap="round" stroke-linejoin="round"><rect x="3" y="4" width="18" height="16" rx="2"/><path d="M3 9.5h18M3 15h18M9 9.5V20"/></g>
<text x="466.0" y="1012" font-size="15.5" font-weight="600" fill="#F0F6FC" text-anchor="start">Returns &amp; orders</text>
<text x="466.0" y="1032" font-size="12.5" font-weight="400" fill="#8B949E" text-anchor="start">catalog · RMA rows</text>
<rect x="648.0" y="978.0" width="232" height="76" rx="10" fill="#0D1117" stroke="#30363D"/>
<rect x="664.0" y="994" width="44" height="44" rx="9" fill="#7AA116"/>
<g transform="translate(672.0 1002) scale(1.1667)" fill="none" stroke="#fff" stroke-width="1.8" stroke-linecap="round" stroke-linejoin="round"><rect x="5" y="4" width="14" height="17" rx="2"/><path d="M9 4V2.5h6V4M8.5 10h7M8.5 13.5h7M8.5 17h4"/></g>
<text x="722.0" y="1012" font-size="15.5" font-weight="600" fill="#F0F6FC" text-anchor="start">Inventory ledger</text>
<text x="722.0" y="1032" font-size="12.5" font-weight="400" fill="#8B949E" text-anchor="start">append-only moves</text>
<rect x="904.0" y="978.0" width="232" height="76" rx="10" fill="#0D1117" stroke="#30363D"/>
<rect x="920.0" y="994" width="44" height="44" rx="9" fill="#7AA116"/>
<g transform="translate(928.0 1002) scale(1.1667)" fill="none" stroke="#fff" stroke-width="1.8" stroke-linecap="round" stroke-linejoin="round"><path d="M3.5 12a8.5 8.5 0 1 0 2.5-6"/><path d="M3.5 3.5V8H8"/><path d="M12 7.5V12l3 2"/></g>
<text x="978.0" y="1012" font-size="15.5" font-weight="600" fill="#F0F6FC" text-anchor="start">Agent memory</text>
<text x="978.0" y="1032" font-size="12.5" font-weight="400" fill="#8B949E" text-anchor="start">episodic · semantic</text>
<rect x="1160.0" y="978.0" width="232" height="76" rx="10" fill="#0D1117" stroke="#30363D"/>
<rect x="1176.0" y="994" width="44" height="44" rx="9" fill="#7AA116"/>
<g transform="translate(1184.0 1002) scale(1.1667)" fill="none" stroke="#fff" stroke-width="1.8" stroke-linecap="round" stroke-linejoin="round"><path d="M6 3h12v18l-6-4-6 4z"/><path d="M9 9.5l2 2 4-4"/></g>
<text x="1234.0" y="1012" font-size="15.5" font-weight="600" fill="#F0F6FC" text-anchor="start">Precedent</text>
<text x="1234.0" y="1032" font-size="12.5" font-weight="400" fill="#8B949E" text-anchor="start">human verdicts</text>
</svg>